# xmcd
#
# Track frame offsets: 
#        150
#        13825
#        30517
#        47587
#        64200
#        78595
#        94982
#        113997
#        129440
#        144857
#        160122
#        174340
#
# Disc length: 2522 seconds
#
# Revision: 0
# Processed by: cddbd v1.5.2PL0 Copyright (c) Steve Scherf et al.
# Submitted via: ExactAudioCopy v0.99pb5
#
DISCID=9609d80c
DTITLE=Baum, Frank and Country Green - Hallo Nachbar, guten Morgen
DYEAR=1900
DGENRE=Country
TTITLE0=Hallo Nachbar, guten Morgen
TTITLE1=Wo bist du
TTITLE2=Das Lied der Straße singen 18 Räder
TTITLE3=Sieben weiße Engel
TTITLE4=Wieder mal vorbei
TTITLE5=Im Theater der Nacht
TTITLE6=Wie ein Stern in der Nacht
TTITLE7=Ist denn nun alles vorbei
TTITLE8=Trucker, du und ich
TTITLE9=Wie eine Feder im Wind
TTITLE10=Liebe fragt nicht
TTITLE11=Die Welt wird immer verrückter
EXTD=
EXTT0=
EXTT1=
EXTT2=
EXTT3=
EXTT4=
EXTT5=
EXTT6=
EXTT7=
EXTT8=
EXTT9=
EXTT10=
EXTT11=
PLAYORDER=
